<?xml version="1.0" standalone="no"?>
<!DOCTYPE svg PUBLIC "-//W3C//DTD SVG 20010904//EN"
 "http://www.w3.org/TR/2001/REC-SVG-20010904/DTD/svg10.dtd">
<svg version="1.0" xmlns="http://www.w3.org/2000/svg"
 width="600.000000pt" height="600.000000pt" viewBox="0 0 600.000000 600.000000"
 preserveAspectRatio="xMidYMid meet">

<g transform="translate(0.000000,600.000000) scale(0.100000,-0.100000)"
fill="#000000" stroke="none">
<path d="M2718 5830 c-539 -61 -1028 -259 -1458 -590 -207 -160 -493 -474
-644 -707 -303 -470 -463 -1057 -443 -1623 31 -847 403 -1588 1072 -2131 377
-307 851 -511 1368 -590 173 -27 556 -32 727 -11 672 85 1247 371 1715 853
441 453 707 1019 781 1654 24 212 15 579 -19 776 -90 511 -278 932 -589 1321
-102 127 -302 328 -428 430 -390 315 -862 521 -1380 603 -121 20 -576 29 -702
15z m616 -105 c325 -38 620 -127 910 -274 650 -330 1111 -858 1363 -1560 19
-51 32 -95 30 -97 -2 -3 -116 -42 -253 -88 -137 -47 -266 -92 -286 -100 -56
-24 -79 -20 -237 35 -316 111 -296 100 -831 474 -71 49 -71 49 -138 45 -241
-17 -629 0 -946 41 l-149 19 -34 -21 c-19 -12 -52 -45 -75 -75 l-40 -53 -182
-1 c-315 0 -484 -37 -573 -126 -42 -43 -47 -45 -142 -59 -146 -22 -361 -80
-489 -131 l-112 -46 -55 31 c-62 35 -76 33 -117 -18 l-23 -28 -263 97 c-145
54 -266 100 -268 103 -10 9 85 236 153 367 35 69 106 188 158 265 271 406 626
717 1070 936 314 154 576 229 960 273 91 10 454 4 569 -9z m-423 -1559 c57 -8
136 -17 174 -21 39 -3 111 -10 160 -16 168 -17 515 -23 602 -9 56 8 86 9 100
2 10 -6 98 -66 194 -133 373 -262 423 -289 704 -384 141 -47 254 -101 330
-159 67 -51 75 -54 75 -27 0 19 -32 47 -122 107 -34 22 -47 35 -37 39 150 55
554 184 560 178 11 -12 46 -164 70 -303 23 -139 37 -510 24 -665 l-7 -87 -46
-20 c-74 -31 -352 -136 -352 -133 0 2 6 29 14 59 16 60 9 111 -15 111 -10 0
-14 -13 -15 -46 -4 -143 -127 -260 -367 -348 -68 -25 -71 -25 -89 -8 -32 31
-521 448 -595 507 -45 36 -81 66 -80 66 1 1 54 7 117 14 209 21 400 69 400
100 0 12 -39 7 -130 -17 -86 -22 -411 -62 -434 -53 -24 9 -120 89 -316 264
-259 231 -450 407 -450 415 0 5 9 11 21 14 12 3 19 12 17 19 -3 9 -35 13 -119
14 -103 1 -249 19 -249 30 0 3 16 28 35 57 19 28 35 57 35 64 0 22 -24 14 -40
-11 -27 -43 -143 -170 -213 -231 -86 -76 -176 -123 -352 -181 -158 -53 -244
-61 -313 -30 -40 18 -82 70 -82 102 0 28 12 41 115 120 49 38 123 104 165 148
41 44 110 116 153 160 43 43 87 96 98 117 10 21 23 41 29 44 6 4 16 21 24 38
10 26 86 107 99 107 2 0 50 -6 108 -14z m-339 -136 l58 0 -19 -30 c-10 -17
-46 -56 -81 -87 l-63 -57 -86 -3 c-47 -2 -138 -9 -201 -15 -63 -7 -151 -13
-195 -13 l-80 0 1 43 c0 29 7 47 20 58 36 29 120 63 194 79 73 16 334 36 375
29 11 -2 46 -4 77 -4z m-713 -193 c18 -45 37 -53 216 -87 160 -31 245 -51 245
-58 0 -11 -141 -127 -176 -145 -17 -9 -105 -37 -195 -62 -90 -26 -173 -53
-184 -60 -11 -7 -68 -102 -127 -211 -58 -110 -149 -280 -202 -378 -52 -98 -98
-188 -102 -200 -8 -24 -74 -143 -112 -199 -18 -27 -31 -37 -44 -34 -10 3 -20
1 -23 -3 -3 -5 -24 -11 -48 -15 -23 -4 -61 -15 -85 -26 l-43 -19 -55 42 c-101
76 -224 253 -224 322 0 38 64 177 263 570 181 356 215 410 267 423 14 3 30 10
36 15 45 35 416 130 572 147 7 0 16 -9 21 -22z m-1194 -78 c138 -51 254 -96
259 -100 5 -4 -19 -51 -54 -105 -114 -176 -265 -492 -334 -701 -10 -29 -19
-53 -21 -53 -2 0 -55 11 -119 25 -64 14 -118 25 -121 25 -9 0 -5 271 6 390 10
114 29 248 50 345 17 81 71 265 78 265 3 0 119 -41 256 -91z m1764 44 c0 -5
-18 -23 -38 -40 l-38 -33 -109 25 c-60 14 -118 25 -128 25 -11 0 -16 3 -12 8
16 16 327 30 325 15z m-1345 -104 c20 -12 36 -24 36 -29 0 -4 -36 -77 -81
-161 -123 -234 -287 -562 -335 -674 -24 -55 -49 -99 -55 -97 -6 1 -31 13 -55
25 l-43 22 60 155 c107 278 272 587 393 735 21 25 39 45 41 45 2 0 20 -9 39
-21z m2021 -73 c39 -8 101 -17 139 -20 71 -6 79 -10 146 -76 19 -19 145 -134
280 -254 135 -121 245 -223 245 -227 0 -4 -26 -25 -57 -46 -110 -74 -205 -159
-408 -362 -227 -227 -366 -385 -628 -711 l-68 -85 -64 -7 c-36 -4 -81 -12
-100 -17 -50 -16 -50 -16 -24 36 42 82 26 167 -40 218 -36 28 -37 28 -167 23
-116 -4 -130 -3 -125 11 34 102 32 130 -9 179 -64 77 -221 97 -364 48 -41 -14
-76 -26 -77 -26 -1 0 1 14 6 32 16 54 -18 141 -69 177 -59 42 -192 35 -264
-13 -34 -24 -187 -89 -193 -83 -2 2 48 100 112 218 125 232 152 281 298 556
54 100 103 186 110 192 9 8 277 91 293 91 1 0 3 -14 3 -30 0 -17 6 -43 14 -58
53 -102 185 -130 366 -78 240 70 378 145 510 280 24 25 49 46 55 46 5 0 42 -6
80 -14z m855 -615 c0 -10 -294 -259 -315 -267 -7 -3 -16 -1 -19 4 -9 14 154
154 273 235 58 40 61 42 61 28z m197 -156 c140 -113 223 -183 493 -415 63 -54
126 -107 139 -118 l24 -19 -93 -128 c-51 -70 -99 -129 -106 -132 -15 -5 -30 4
-184 117 -58 42 -172 126 -255 186 -82 60 -168 122 -191 139 -22 16 -98 72
-167 123 -70 51 -127 97 -127 102 0 16 298 272 312 267 4 -1 73 -56 155 -122z
m-3751 -70 c46 -9 111 -31 163 -57 l86 -43 44 -90 c38 -76 60 -105 144 -189
l100 -99 -17 -28 c-23 -38 -21 -136 3 -193 49 -113 227 -167 379 -113 l42 15
0 -52 c0 -68 35 -140 93 -193 81 -75 172 -81 299 -21 l74 35 17 -70 c20 -83
46 -125 101 -159 114 -71 233 -60 346 33 l34 29 11 -44 c21 -83 64 -119 164
-138 76 -14 113 5 203 103 l79 86 42 -8 c23 -4 116 -22 207 -39 91 -17 221
-42 290 -56 l125 -25 58 21 c64 24 82 45 92 108 4 24 10 42 14 40 3 -2 51 -27
105 -57 l99 -54 74 22 c167 49 203 82 203 189 0 37 4 62 11 62 6 0 42 -21 81
-46 l71 -45 69 11 c91 16 187 65 212 108 12 22 21 63 25 114 l6 80 27 -21 c15
-12 41 -21 61 -21 56 0 168 39 198 69 32 32 52 96 47 154 l-3 41 78 28 c114
40 225 101 286 157 29 27 70 56 90 64 83 35 386 145 390 142 6 -6 -29 -194
-54 -295 -94 -372 -291 -765 -538 -1070 -99 -123 -306 -327 -427 -421 -624
-485 -1395 -680 -2172 -548 -255 43 -473 116 -733 244 -459 225 -791 517
-1077 945 -97 146 -235 416 -293 574 -75 204 -135 468 -151 667 l-7 82 26 -7
c14 -3 61 -13 103 -21z m3194 -73 c0 -4 -68 -82 -152 -172 -138 -149 -183
-187 -183 -153 0 6 70 83 155 172 138 143 180 179 180 153z m230 -164 c74 -54
248 -180 385 -281 178 -130 251 -189 253 -204 2 -16 -20 -50 -75 -115 -43 -51
-91 -110 -107 -130 -15 -21 -36 -40 -46 -43 -12 -4 -143 74 -406 241 -448 284
-470 298 -485 325 -11 21 22 62 215 265 l74 77 29 -18 c15 -10 89 -62 163
-117z m-2121 -72 c15 -15 33 -45 40 -67 10 -34 9 -45 -8 -83 -40 -92 -128
-164 -316 -259 -162 -82 -277 -97 -370 -49 -76 39 -105 87 -105 177 0 97 35
121 255 173 94 23 158 45 230 81 117 59 124 61 193 57 41 -2 58 -8 81 -30z
m1535 -135 c8 -12 -263 -323 -275 -316 -5 4 -6 13 -1 21 15 26 255 304 263
304 4 0 10 -4 13 -9z m-1123 -33 c91 -26 119 -90 78 -174 -30 -60 -132 -170
-219 -236 -99 -75 -300 -171 -369 -176 -73 -5 -132 26 -180 93 -29 40 -36 59
-39 109 l-4 61 43 31 c24 17 71 46 104 64 72 40 125 79 185 136 29 28 69 52
113 69 117 44 194 50 288 23z m1234 -33 c17 -13 156 -103 310 -200 154 -97
290 -184 303 -192 33 -20 38 -41 16 -68 -75 -92 -200 -225 -212 -225 -7 0 -26
8 -40 18 -15 11 -101 59 -192 107 -91 48 -190 102 -220 118 -30 16 -104 54
-165 85 -60 30 -116 59 -122 64 -15 12 -5 35 32 77 13 14 67 77 120 139 106
123 108 123 170 77z m1493 -96 l-3 -37 -28 24 -28 24 22 37 c22 36 23 36 31
12 5 -13 8 -40 6 -60z m-28 -34 c23 -25 23 -27 8 -53 -22 -36 -31 -37 -64 -9
-26 23 -27 26 -15 56 16 38 39 40 71 6z m-61 -74 l24 -18 -34 -11 c-50 -15
-79 -21 -79 -16 0 12 45 64 54 64 6 0 22 -9 35 -19z m-2240 -46 c36 -41 41
-96 15 -148 -28 -54 -110 -142 -220 -234 -112 -95 -163 -122 -235 -122 -54 -1
-141 39 -171 79 -22 30 -50 128 -42 151 2 9 53 53 112 97 59 44 128 102 154
130 43 45 71 61 133 75 11 3 66 5 121 6 l102 1 31 -35z m1992 -106 l-6 -30
-29 30 -28 29 28 38 29 37 6 -37 c3 -21 3 -51 0 -67z m-1558 65 c6 -6 -37 -65
-110 -153 -25 -29 -30 -31 -41 -18 -10 12 -1 28 53 96 61 75 82 91 98 75z
m196 -106 c75 -39 175 -92 224 -118 48 -25 99 -55 112 -66 l25 -19 -56 -83
c-31 -46 -62 -81 -68 -79 -21 8 -152 36 -346 72 -225 42 -245 48 -235 73 4 9
11 33 15 53 6 31 132 208 165 231 17 13 25 10 164 -64z m1325 23 c23 -24 25
-31 16 -53 -6 -13 -20 -30 -31 -36 -17 -11 -24 -9 -50 12 -16 14 -30 28 -31
32 -3 11 46 73 58 74 5 0 23 -13 38 -29z m-77 -85 l28 -24 -58 -17 c-31 -9
-61 -15 -66 -13 -10 3 48 78 61 78 4 0 19 -11 35 -24z m-1628 -31 c23 -22 16
-88 -12 -130 -14 -20 -55 -72 -92 -116 -85 -99 -115 -111 -202 -83 -114 37
-136 134 -50 222 52 54 92 75 199 106 88 25 132 26 157 1z m1274 -11 c2 -15 2
-37 -2 -50 l-6 -24 -30 24 -30 24 24 26 c31 33 37 33 44 0z m-42 -65 c34 -24
36 -39 10 -64 -21 -18 -25 -16 -89 31 -6 4 32 53 41 54 5 0 22 -9 38 -21z
m-47 -71 c17 -13 15 -16 -25 -30 -24 -9 -55 -19 -68 -23 -27 -8 -24 -2 18 52
26 33 32 33 75 1z m-404 -18 c0 -19 -11 -26 -23 -14 -8 8 3 34 14 34 5 0 9 -9
9 -20z m-20 -35 c19 -22 -5 -48 -31 -34 -16 8 -17 13 -6 29 14 24 21 25 37 5z
m-36 -44 c3 -5 -1 -12 -10 -15 -20 -8 -29 -1 -19 13 8 13 22 14 29 2z"/>
<path d="M2140 3580 c-14 -4 -45 -13 -70 -20 -25 -7 -56 -16 -70 -20 -14 -4
-63 -18 -110 -30 -173 -46 -156 -33 -227 -166 -35 -66 -101 -189 -145 -274
-45 -85 -88 -165 -96 -178 -8 -12 -12 -25 -9 -28 2 -3 35 53 72 123 37 70 90
171 118 223 28 52 67 126 89 163 21 38 38 72 38 75 0 4 53 22 118 39 64 18
166 46 226 63 103 28 137 41 105 39 -8 0 -25 -4 -39 -9z"/>
<path d="M1397 2843 c-2 -5 -30 -57 -62 -118 -32 -60 -75 -139 -95 -175 -37
-67 -52 -100 -46 -100 5 0 54 89 151 273 36 70 64 127 61 127 -2 0 -7 -3 -9
-7z"/>
<path d="M2901 3342 c13 -11 103 -72 199 -137 96 -65 203 -138 238 -163 35
-24 65 -42 68 -40 2 3 -58 46 -134 98 -75 51 -192 131 -260 177 -113 76 -168
109 -111 65z"/>
<path d="M2830 3276 c0 -6 313 -216 334 -225 5 -2 44 -28 88 -58 44 -30 81
-53 84 -51 2 2 -38 31 -89 65 -452 298 -417 276 -417 269z"/>
<path d="M2487 3089 c13 -13 116 -86 303 -214 69 -47 144 -99 168 -115 60 -42
99 -66 87 -53 -14 15 -82 63 -442 310 -54 37 -99 71 -101 75 -2 4 -9 8 -15 8
-8 0 -8 -3 0 -11z"/>
<path d="M2420 3021 c0 -6 3 -11 8 -11 4 0 45 -27 92 -61 90 -64 145 -97 100
-59 -14 11 -56 42 -93 68 -37 26 -77 53 -88 61 -12 9 -19 10 -19 2z"/>
<path d="M2654 2862 c4 -7 79 -62 167 -123 87 -61 162 -115 165 -120 3 -5 10
-9 15 -9 18 0 1 16 -63 60 -87 59 -180 124 -241 168 -28 20 -48 31 -43 24z"/>
<path d="M2150 2722 c0 -4 35 -28 78 -53 42 -25 171 -104 285 -174 115 -70
210 -125 213 -123 2 3 -83 57 -189 121 -105 64 -236 143 -289 176 -54 33 -98
57 -98 53z"/>
<path d="M2090 2654 c0 -5 43 -36 96 -69 393 -247 470 -295 478 -295 9 0 -316
208 -464 298 -41 25 -83 52 -92 60 -10 8 -18 11 -18 6z"/>
</g>
</svg>
