<?xml version="1.0" standalone="no"?>
<!DOCTYPE svg PUBLIC "-//W3C//DTD SVG 20010904//EN"
 "http://www.w3.org/TR/2001/REC-SVG-20010904/DTD/svg10.dtd">
<svg version="1.0" xmlns="http://www.w3.org/2000/svg"
 width="1205.000000pt" height="581.000000pt" viewBox="0 0 1205.000000 581.000000"
 preserveAspectRatio="xMidYMid meet">

<g transform="translate(0.000000,581.000000) scale(0.100000,-0.100000)"
fill="#000000" stroke="none">
<path d="M965 4427 c-14 -11 -14 -15 -3 -23 13 -11 280 -110 973 -363 138 -51
266 -98 285 -106 36 -14 448 -166 1207 -445 l441 -162 -64 -98 c-113 -173
-217 -385 -311 -635 -25 -66 -46 -121 -48 -123 -2 -3 -384 80 -1135 247 -962
213 -1409 311 -1425 311 -10 0 -15 -7 -13 -17 3 -14 45 -27 218 -65 118 -26
350 -77 515 -114 165 -36 316 -70 335 -74 19 -4 334 -73 700 -153 366 -81 690
-151 720 -157 30 -6 93 -29 140 -53 l85 -42 44 -90 c38 -76 60 -105 144 -189
l100 -99 -17 -28 c-22 -38 -21 -136 3 -191 23 -53 52 -80 116 -110 62 -28 195
-31 263 -6 l42 16 0 -52 c0 -68 35 -140 93 -193 81 -75 172 -81 299 -21 l74
35 17 -70 c20 -83 46 -125 101 -159 114 -71 233 -60 346 33 l34 29 11 -44 c21
-83 64 -119 164 -138 76 -14 113 5 203 103 l79 86 42 -8 c23 -4 116 -22 207
-39 91 -17 221 -42 290 -56 l125 -25 58 21 c64 24 82 45 92 108 4 24 10 42 14
40 3 -2 51 -27 105 -57 l99 -54 76 22 c163 48 202 84 202 190 0 34 5 61 11 61
5 0 42 -21 81 -46 l71 -46 69 12 c91 16 186 65 211 108 12 22 21 63 25 114 l6
80 27 -21 c15 -12 41 -21 61 -21 56 0 168 39 198 69 32 32 52 96 47 154 l-3
41 75 27 c115 41 214 94 285 154 75 64 64 59 350 166 121 45 313 117 427 160
323 122 491 178 643 214 350 83 430 101 740 170 182 40 393 85 470 100 146 29
167 37 148 56 -8 8 -48 4 -150 -15 -175 -35 -626 -134 -1038 -230 -376 -88
-491 -126 -1327 -450 -93 -35 -168 -63 -168 -61 0 2 6 29 14 59 16 60 9 111
-15 111 -10 0 -14 -13 -15 -46 -4 -138 -129 -260 -357 -344 -78 -29 -81 -29
-99 -12 -32 31 -521 448 -595 507 -45 36 -81 66 -80 66 1 1 54 7 117 14 209
21 400 69 400 100 0 11 -45 7 -105 -10 -100 -29 -430 -71 -460 -60 -23 9 -119
90 -315 264 -259 231 -450 407 -450 415 0 5 9 11 21 14 12 3 19 12 17 19 -3 9
-35 13 -119 14 -103 1 -249 19 -249 30 0 3 16 28 35 57 19 28 35 57 35 64 0
22 -24 14 -40 -11 -27 -43 -143 -170 -213 -231 -85 -76 -176 -122 -352 -182
-157 -53 -243 -61 -313 -29 -40 18 -82 70 -82 102 0 28 12 41 115 120 49 38
123 104 165 148 41 44 110 116 153 160 43 43 87 96 97 116 10 20 26 42 34 49
9 8 16 20 16 27 0 16 65 90 90 104 9 5 60 3 126 -6 358 -46 789 -66 931 -44
55 8 86 9 99 2 11 -6 91 -61 179 -122 396 -278 433 -298 735 -400 137 -46 240
-97 323 -159 61 -46 67 -48 67 -22 0 19 -32 47 -122 107 -34 22 -47 35 -37 38
8 3 212 73 454 155 625 212 1034 355 1490 519 466 169 873 338 906 378 22 26
-1 28 -54 5 -289 -128 -720 -297 -1130 -442 -241 -86 -849 -296 -1127 -390
-445 -151 -493 -168 -545 -188 l-50 -19 -140 48 c-322 109 -356 127 -743 399
-95 67 -183 125 -195 130 -12 4 -58 4 -102 -1 -161 -19 -642 5 -949 47 -106
15 -109 15 -143 -6 -19 -12 -52 -45 -74 -75 l-41 -53 -182 0 c-314 -1 -484
-38 -573 -127 -42 -43 -47 -45 -142 -59 -145 -22 -361 -79 -486 -130 -61 -25
-114 -45 -118 -45 -4 0 -29 14 -56 31 -56 34 -72 31 -113 -20 l-23 -28 -375
138 c-206 76 -517 191 -690 255 -173 64 -418 155 -545 201 -126 47 -338 125
-470 173 -491 181 -751 278 -786 293 -30 13 -40 14 -54 4z m4527 -726 l68 -1
-19 -30 c-10 -17 -46 -56 -81 -87 l-63 -57 -146 -7 c-80 -4 -182 -12 -226 -19
-44 -6 -105 -10 -135 -8 l-55 3 1 43 c1 48 12 60 89 97 86 42 299 73 460 69
22 -1 70 -2 107 -3z m-703 -194 c18 -45 37 -53 216 -87 160 -31 245 -51 245
-58 0 -11 -141 -127 -176 -145 -16 -8 -108 -38 -203 -65 -96 -28 -180 -56
-187 -64 -16 -16 -414 -757 -414 -771 0 -12 -80 -154 -118 -210 -18 -27 -31
-37 -44 -34 -10 3 -20 1 -23 -3 -3 -5 -24 -11 -48 -15 -23 -4 -62 -16 -86 -26
l-44 -19 -54 41 c-101 78 -223 254 -223 322 0 38 77 205 271 587 179 353 205
392 259 406 14 4 30 11 37 16 37 29 328 108 503 137 81 13 80 13 89 -12z m536
-67 l-40 -40 -110 25 c-61 14 -119 25 -129 25 -11 0 -16 3 -12 8 10 10 109 19
231 20 l100 2 -40 -40z m-1311 -71 c20 -12 36 -25 36 -29 0 -4 -34 -72 -76
-151 -114 -216 -291 -571 -340 -684 -24 -55 -49 -99 -55 -97 -6 1 -31 13 -55
25 l-43 22 60 155 c106 276 277 596 390 731 22 27 42 49 44 49 2 0 20 -9 39
-21z m1995 -69 c19 -5 81 -15 138 -21 l104 -12 97 -92 c53 -51 187 -172 297
-270 110 -98 200 -182 200 -186 0 -4 -26 -25 -57 -46 -109 -74 -205 -158 -408
-362 -226 -226 -364 -382 -628 -711 l-68 -85 -64 -7 c-36 -4 -81 -12 -100 -17
-50 -16 -50 -16 -24 36 42 82 26 167 -40 218 -36 28 -37 28 -166 23 -72 -3
-130 -2 -130 2 0 4 7 24 15 43 21 51 19 89 -8 128 -63 94 -223 119 -391 60
-33 -12 -60 -21 -62 -21 -1 0 1 14 6 32 16 54 -18 141 -69 178 -60 42 -191 35
-264 -15 -39 -26 -188 -88 -195 -80 -3 2 0 10 5 17 6 7 34 58 63 113 29 55 82
154 118 220 102 189 123 229 226 421 53 100 102 186 109 192 10 8 112 40 280
88 13 4 17 -1 17 -26 0 -93 91 -160 218 -161 73 -1 107 6 247 53 189 62 309
134 425 252 47 49 56 52 109 36z m881 -619 c0 -10 -294 -259 -315 -267 -7 -3
-16 -1 -19 4 -9 14 154 154 273 235 58 40 61 42 61 28z m245 -196 c94 -76 204
-168 246 -204 118 -103 311 -268 338 -289 l24 -19 -93 -128 c-51 -70 -99 -129
-106 -132 -15 -5 -30 4 -184 117 -58 42 -172 126 -255 186 -82 60 -168 122
-191 139 -22 16 -98 72 -167 123 -70 51 -127 97 -127 102 0 12 17 28 149 139
156 131 161 134 180 117 9 -7 93 -75 186 -151z m-605 -103 c0 -4 -68 -82 -152
-172 -137 -149 -183 -187 -183 -154 0 7 70 84 154 173 138 143 181 180 181
153z m200 -142 c58 -42 191 -139 295 -215 350 -254 375 -274 375 -296 0 -11
-35 -61 -78 -112 -42 -51 -90 -109 -106 -129 -40 -53 -58 -55 -119 -15 -29 19
-194 124 -367 233 -339 214 -384 244 -436 288 l-34 28 82 91 c46 50 115 125
155 166 l71 74 29 -18 c15 -10 75 -52 133 -95z m-2091 -94 c15 -15 33 -45 40
-67 10 -34 9 -45 -8 -83 -40 -92 -129 -164 -316 -259 -158 -80 -248 -94 -348
-57 -90 34 -127 87 -127 185 0 97 35 121 255 173 94 23 158 45 230 81 117 59
124 61 193 57 41 -2 58 -8 81 -30z m1535 -135 c8 -12 -263 -323 -275 -316 -5
4 -6 13 -1 21 15 26 255 304 263 304 4 0 10 -4 13 -9z m-1175 -21 c100 -19
151 -60 151 -121 0 -63 -112 -204 -240 -301 -99 -75 -300 -171 -369 -176 -73
-5 -132 26 -180 93 -29 40 -36 59 -39 110 l-4 61 53 36 c30 19 89 57 132 83
43 26 104 71 136 101 63 58 147 97 244 113 29 5 55 9 58 10 4 0 30 -3 58 -9z
m1298 -54 c23 -17 90 -61 150 -98 311 -194 468 -297 477 -311 12 -19 13 -18
-118 -166 -49 -56 -95 -101 -103 -101 -7 0 -30 11 -51 24 -51 33 -427 234
-565 303 -61 30 -118 60 -124 65 -19 15 -4 36 130 191 133 153 127 150 204 93z
m1481 -87 l-3 -37 -28 24 -28 24 22 37 c22 36 23 36 31 12 5 -13 8 -40 6 -60z
m-28 -34 c23 -25 23 -27 8 -53 -22 -36 -31 -37 -64 -9 -26 23 -27 26 -15 56
16 38 39 40 71 6z m-61 -74 l24 -18 -34 -11 c-50 -15 -79 -21 -79 -16 0 12 45
64 54 64 6 0 22 -9 35 -19z m-2240 -46 c76 -87 21 -190 -203 -380 -114 -97
-165 -124 -237 -124 -54 -1 -141 39 -171 79 -23 31 -50 128 -42 152 3 10 44
46 92 80 48 35 120 94 160 132 87 83 120 94 268 95 l102 1 31 -35z m1992 -106
l-6 -30 -29 30 -28 29 28 38 29 37 6 -37 c3 -21 3 -51 0 -67z m-1558 65 c6 -6
-33 -58 -111 -152 -24 -29 -30 -32 -40 -19 -10 11 -4 24 30 68 79 102 102 122
121 103z m296 -158 c121 -64 230 -125 242 -135 l22 -17 -46 -65 c-26 -35 -52
-73 -60 -83 -12 -18 -15 -18 -63 -3 -27 9 -83 22 -124 28 -127 19 -403 78
-413 88 -5 5 -5 17 2 29 6 11 11 32 11 45 0 21 133 206 165 230 17 12 36 4
264 -117z m1225 75 c25 -26 26 -32 15 -52 -12 -23 -38 -48 -49 -48 -3 0 -20
13 -39 29 l-34 29 29 35 c16 19 34 35 40 35 5 1 23 -12 38 -28z m-77 -85 l28
-24 -55 -16 c-80 -24 -85 -21 -48 24 18 22 36 40 40 40 4 0 19 -11 35 -24z
m-1627 -32 c22 -21 15 -88 -13 -129 -14 -20 -55 -72 -92 -116 -85 -99 -115
-111 -202 -83 -116 38 -136 134 -46 226 50 51 106 79 216 108 75 20 112 19
137 -6z m1273 -10 c2 -15 2 -37 -2 -50 l-6 -24 -30 24 -30 24 24 26 c31 33 37
33 44 0z m-42 -65 c34 -24 36 -39 10 -64 -21 -18 -25 -16 -89 31 -6 4 32 53
41 54 5 0 22 -9 38 -21z m-47 -71 c17 -13 15 -16 -25 -30 -24 -9 -55 -19 -68
-23 -27 -8 -24 -2 18 52 26 33 32 33 75 1z m-404 -24 c0 -14 -12 -19 -23 -8
-9 9 4 35 14 28 5 -3 9 -12 9 -20z m-20 -29 c19 -22 -5 -48 -31 -34 -16 8 -17
13 -6 29 14 24 21 25 37 5z m-36 -44 c3 -5 -1 -12 -10 -15 -20 -8 -29 -1 -19
13 8 13 22 14 29 2z"/>
<path d="M5070 3250 c-14 -4 -45 -13 -70 -20 -25 -7 -56 -16 -70 -20 -14 -4
-63 -18 -110 -30 -173 -46 -156 -33 -227 -166 -35 -66 -98 -184 -140 -264 -41
-80 -84 -160 -95 -178 -11 -18 -18 -35 -15 -38 3 -3 40 61 83 143 43 81 102
193 131 248 30 55 65 123 79 150 l26 51 117 32 c64 17 165 45 225 62 103 28
137 41 105 39 -8 0 -25 -4 -39 -9z"/>
<path d="M4314 2488 c-9 -18 -29 -55 -44 -83 -15 -27 -48 -90 -75 -140 -26
-49 -51 -94 -55 -100 -9 -14 -20 -45 -16 -45 5 0 54 89 151 273 36 70 64 127
61 127 -3 0 -13 -15 -22 -32z"/>
<path d="M5831 3011 c13 -10 98 -68 189 -130 91 -62 198 -135 239 -162 40 -28
75 -48 77 -46 2 2 -58 45 -134 97 -75 51 -192 131 -260 177 -113 77 -168 109
-111 64z"/>
<path d="M5760 2946 c0 -6 313 -216 334 -225 5 -2 44 -28 88 -58 44 -30 82
-53 84 -50 2 2 -40 33 -93 68 -54 35 -163 106 -243 159 -175 116 -170 113
-170 106z"/>
<path d="M5417 2759 c13 -13 125 -91 293 -206 63 -43 142 -98 175 -121 60 -44
109 -73 90 -54 -15 14 -92 68 -442 309 -54 37 -99 71 -101 75 -2 4 -9 8 -15 8
-8 0 -8 -3 0 -11z"/>
<path d="M5350 2692 c0 -5 6 -12 13 -15 15 -6 525 -363 550 -384 9 -9 17 -12
17 -6 0 6 -24 26 -52 46 -55 37 -111 76 -347 242 -78 55 -150 106 -161 114
-11 7 -20 9 -20 3z"/>
<path d="M5080 2392 c0 -4 53 -39 118 -78 64 -39 193 -117 285 -173 93 -57
170 -101 173 -99 2 3 -72 50 -164 106 -92 55 -222 135 -289 176 -68 41 -123
72 -123 68z"/>
<path d="M5020 2321 c0 -3 42 -32 93 -64 50 -32 178 -112 282 -178 105 -65
194 -119 199 -119 9 0 -121 84 -486 313 -49 31 -88 52 -88 48z"/>
</g>
</svg>
