<?xml version="1.0" standalone="no"?>
<!DOCTYPE svg PUBLIC "-//W3C//DTD SVG 20010904//EN"
 "http://www.w3.org/TR/2001/REC-SVG-20010904/DTD/svg10.dtd">
<svg version="1.0" xmlns="http://www.w3.org/2000/svg"
 width="2160.000000pt" height="1080.000000pt" viewBox="0 0 2160.000000 1080.000000"
 preserveAspectRatio="xMidYMid meet">

<g transform="translate(0.000000,1080.000000) scale(0.100000,-0.100000)"
fill="#000000" stroke="none">
<path d="M4018 7447 l-227 -402 641 -3 c705 -2 678 0 678 -62 0 -15 -27 -105
-60 -201 -32 -96 -284 -844 -559 -1664 -274 -819 -549 -1638 -610 -1818 -86
-256 -106 -327 -93 -323 893 290 1126 367 1132 373 4 4 281 827 615 1828 334
1001 614 1830 622 1843 l13 22 583 0 582 0 232 405 232 405 -1777 0 -1777 -1
-227 -402z"/>
<path d="M6042 6168 c-132 -398 -396 -1193 -587 -1766 -191 -574 -345 -1045
-343 -1047 6 -6 997 320 1007 331 5 5 51 136 101 292 l93 282 271 0 c291 1
401 8 594 41 697 117 1282 545 1535 1122 111 255 161 462 161 677 0 160 -18
249 -69 355 -103 216 -330 343 -730 411 -87 15 -207 18 -947 21 l-846 4 -240
-723z m1504 2 c105 -27 179 -64 232 -117 67 -67 87 -120 87 -228 0 -211 -104
-452 -265 -616 -191 -194 -358 -246 -814 -256 -212 -5 -239 -4 -233 10 3 8 94
284 203 614 108 329 198 601 201 606 2 4 118 7 257 7 221 0 263 -3 332 -20z"/>
<path d="M10660 6795 c-222 -62 -470 -373 -470 -588 0 -54 3 -62 33 -92 91
-91 317 -34 472 119 214 212 301 486 175 551 -45 23 -145 28 -210 10z m119
-90 c16 -8 31 -22 35 -30 31 -81 -51 -260 -179 -391 -84 -85 -137 -115 -221
-122 -58 -4 -64 -3 -89 23 -26 25 -27 31 -22 86 13 147 165 362 300 425 60 27
133 32 176 9z"/>
<path d="M11559 6796 c-124 -33 -238 -148 -256 -260 -7 -47 12 -75 87 -126 75
-51 83 -76 48 -140 -52 -94 -180 -137 -270 -91 l-37 18 -42 -43 -41 -42 32
-17 c103 -53 275 -12 391 92 45 41 99 143 99 187 0 43 -20 69 -90 116 -32 22
-61 49 -65 60 -15 48 52 144 118 169 44 17 109 13 144 -9 l32 -19 35 41 c20
22 33 44 31 48 -7 12 -90 30 -132 29 -21 0 -59 -6 -84 -13z"/>
<path d="M16571 6794 c-173 -46 -348 -205 -443 -402 -68 -141 -64 -258 11
-297 71 -36 201 -26 308 24 58 28 59 29 55 65 -2 20 -5 36 -7 36 -1 0 -24 -12
-49 -26 -61 -34 -158 -44 -204 -20 -61 31 -65 122 -10 230 118 232 331 365
482 302 33 -14 34 -13 72 25 44 46 41 51 -39 69 -63 13 -110 12 -176 -6z"/>
<path d="M17379 6796 c-99 -26 -201 -113 -239 -202 -38 -87 -25 -119 70 -184
74 -50 83 -76 49 -139 -49 -94 -181 -138 -271 -92 l-37 18 -42 -43 -41 -42 32
-17 c103 -53 275 -12 391 92 45 41 99 143 99 187 0 43 -20 69 -90 116 -66 45
-76 65 -60 114 12 38 76 101 116 116 41 16 106 11 141 -10 l32 -19 36 41 c39
46 36 55 -21 69 -52 12 -110 10 -165 -5z"/>
<path d="M9660 6793 l-55 -4 -165 -296 c-91 -163 -180 -323 -197 -355 l-33
-58 48 0 47 0 88 160 88 159 47 -6 c26 -3 50 -11 54 -17 4 -6 8 -34 8 -62 0
-28 3 -92 6 -142 l7 -92 55 0 55 0 -7 68 c-3 37 -9 113 -12 170 -6 91 -5 102
10 102 49 0 161 80 208 147 66 97 69 177 6 209 -31 16 -160 25 -258 17z m147
-94 c53 -20 57 -55 12 -122 -47 -71 -103 -100 -206 -105 -45 -3 -83 -1 -83 3
0 5 28 59 62 122 l62 113 63 0 c34 0 74 -5 90 -11z"/>
<path d="M12157 6755 l-25 -44 113 -3 112 -3 -173 -310 -173 -310 35 -3 c20
-2 42 -1 49 2 7 2 90 144 185 315 l172 310 121 3 122 3 23 43 23 42 -279 0
-280 0 -25 -45z"/>
<path d="M12930 6449 c-107 -194 -197 -356 -199 -361 -2 -5 18 -8 44 -6 l47 3
96 173 96 172 159 0 158 0 -29 -52 c-16 -29 -59 -106 -96 -170 -36 -65 -66
-120 -66 -123 0 -4 21 -5 46 -3 l46 3 162 290 c89 160 178 320 199 358 l38 67
-48 0 -48 -1 -80 -144 -80 -145 -158 0 -158 0 12 23 c6 12 28 51 49 87 20 36
51 91 69 123 l32 57 -48 0 -48 0 -195 -351z"/>
<path d="M13890 6449 c-107 -193 -196 -354 -198 -360 -2 -5 80 -9 207 -9 l211
0 20 40 c11 21 20 42 20 44 0 3 -72 7 -159 8 l-160 3 72 127 72 128 117 0 118
0 20 40 20 39 -114 3 -115 3 55 98 55 97 164 0 163 0 25 45 26 45 -212 0 -212
0 -195 -351z"/>
<path d="M14837 6755 l-25 -44 112 -3 113 -3 -173 -310 -173 -310 35 -3 c20
-2 42 -1 48 1 7 3 91 145 186 316 l173 310 121 3 121 3 23 43 23 42 -279 0
-280 0 -25 -45z"/>
<path d="M15627 6447 c-108 -195 -197 -357 -197 -360 0 -4 19 -7 43 -7 l43 0
201 360 201 360 -47 0 -48 0 -196 -353z"/>
<path d="M9225 5649 c-4 -6 -4 -13 -1 -16 6 -6 213 -83 1586 -588 415 -153
758 -281 762 -284 4 -3 -15 -40 -43 -81 -68 -101 -174 -315 -239 -481 l-53
-136 -61 14 c-34 8 -203 45 -376 83 -173 38 -436 96 -585 129 -615 137 -1045
231 -1055 231 -20 0 -10 -28 13 -33 12 -3 290 -65 617 -137 327 -72 755 -166
950 -210 195 -43 382 -83 414 -89 33 -6 90 -25 127 -42 66 -30 68 -33 104
-108 29 -58 57 -95 120 -157 75 -73 81 -82 69 -99 -20 -27 -18 -123 4 -165 40
-81 150 -119 271 -94 36 8 66 14 66 14 0 0 0 -20 1 -44 1 -57 38 -121 92 -163
38 -29 51 -33 105 -33 47 0 76 7 123 29 l61 29 12 -59 c13 -66 46 -111 100
-138 83 -42 153 -35 238 23 l49 34 17 -49 c20 -54 60 -83 135 -95 43 -7 103
15 125 46 7 9 30 38 53 63 l41 47 259 -51 c142 -28 269 -51 282 -50 32 1 100
38 112 60 5 11 10 31 10 45 0 14 3 26 8 26 4 0 40 -18 80 -40 40 -22 84 -40
98 -40 37 0 166 48 188 70 14 13 21 39 25 85 l6 66 64 -41 64 -42 61 12 c135
25 188 78 190 186 0 57 5 64 27 38 17 -21 99 -14 164 15 37 16 50 29 66 66 12
27 19 61 17 83 -3 36 -2 36 57 58 93 33 183 81 228 123 52 48 62 53 194 100
59 22 214 80 343 129 386 147 509 186 810 255 324 75 586 133 775 172 129 27
157 37 136 49 -14 9 -119 -11 -476 -89 -734 -162 -785 -177 -1399 -412 -164
-62 -300 -112 -303 -109 -3 2 0 14 7 26 14 26 9 102 -7 108 -9 2 -13 -9 -13
-35 0 -98 -81 -188 -231 -257 -125 -58 -104 -65 -284 91 -187 161 -346 296
-377 317 -12 9 -20 17 -17 20 2 2 49 9 104 15 127 15 242 39 280 60 l30 16
-25 3 c-14 2 -52 -4 -85 -13 -78 -20 -318 -49 -347 -42 -23 6 -187 147 -477
407 -82 74 -150 138 -150 141 -1 4 9 9 21 13 49 12 -2 26 -113 30 -62 2 -128
7 -146 11 l-31 7 29 46 c29 45 36 72 21 72 -4 0 -16 -15 -27 -32 -10 -18 -62
-76 -115 -129 -109 -109 -168 -143 -355 -204 -119 -38 -174 -43 -234 -19 -41
16 -79 69 -68 97 3 8 49 50 103 94 124 100 112 89 168 158 26 32 67 76 91 97
23 20 61 68 84 106 22 38 54 81 71 97 33 32 23 32 270 -1 86 -11 215 -17 413
-19 l288 -3 219 -151 c237 -164 275 -184 480 -256 157 -55 215 -83 287 -136
58 -43 63 -45 63 -25 0 16 -68 75 -115 99 -22 11 -26 17 -15 21 8 3 222 76
475 162 1107 376 1807 640 1840 694 16 25 -9 20 -105 -25 -56 -25 -157 -68
-226 -96 -327 -130 -661 -249 -1846 -655 l-188 -65 -127 45 c-249 87 -318 126
-662 373 l-74 53 -161 -6 c-177 -7 -434 7 -646 35 -157 21 -169 18 -222 -53
l-33 -43 -175 -6 c-172 -5 -293 -23 -364 -52 -19 -8 -55 -33 -81 -55 -26 -22
-57 -40 -70 -40 -78 0 -334 -66 -452 -116 l-82 -35 -40 25 c-22 14 -44 26 -48
26 -4 0 -21 -14 -38 -30 l-31 -30 -544 200 c-300 111 -610 225 -690 255 -80
29 -334 123 -566 209 -232 85 -449 166 -482 180 -69 29 -78 31 -87 15z m3725
-588 c-1 -16 -30 -51 -75 -93 l-50 -46 -130 -7 c-71 -4 -152 -11 -179 -16 -98
-18 -156 -10 -156 23 0 90 191 147 488 145 56 0 102 -3 102 -6z m-620 -154 c0
-19 30 -43 60 -50 14 -2 86 -17 160 -32 74 -14 139 -30 143 -34 5 -5 -21 -33
-57 -64 -67 -57 -107 -74 -301 -127 -44 -12 -85 -27 -91 -33 -7 -7 -50 -84
-97 -172 -47 -88 -104 -194 -127 -235 -22 -41 -69 -132 -104 -202 -74 -147
-116 -213 -136 -214 -8 0 -22 -3 -30 -6 -8 -3 -43 -14 -77 -25 l-62 -19 -45
35 c-86 69 -176 199 -176 255 0 36 101 253 253 545 l122 235 55 28 c72 36 198
75 335 104 129 27 175 30 175 11z m434 -58 l-31 -31 -104 23 c-92 21 -100 25
-69 30 19 4 80 7 135 8 l100 1 -31 -31z m-1064 -54 c17 -9 30 -18 30 -20 0 -3
-72 -145 -159 -317 -88 -172 -172 -343 -186 -380 -15 -38 -29 -68 -31 -68 -9
0 -84 40 -84 45 0 2 20 57 45 121 88 226 205 448 307 582 22 28 42 52 45 52 2
0 17 -7 33 -15z m1753 -75 c48 0 48 0 245 -177 108 -98 221 -201 251 -229 l54
-50 -34 -21 c-60 -35 -231 -184 -353 -308 -148 -149 -306 -329 -448 -507 -101
-127 -112 -138 -142 -138 -18 0 -55 -7 -82 -15 -66 -20 -67 -20 -44 18 13 20
20 50 20 81 0 43 -4 53 -40 89 l-41 40 -105 -6 c-97 -5 -105 -5 -98 11 4 9 9
38 12 65 4 43 1 50 -30 81 -58 58 -165 72 -280 36 -34 -11 -64 -20 -65 -20 -1
0 0 13 3 29 9 42 -27 116 -68 141 -55 33 -158 23 -216 -21 -27 -21 -132 -62
-139 -55 -3 3 17 47 44 98 28 51 119 221 203 378 84 157 157 290 164 297 11
13 203 73 231 73 9 0 15 -9 15 -24 0 -33 39 -86 80 -107 58 -32 139 -25 280
21 182 61 243 95 353 202 21 20 43 38 49 40 6 2 38 -2 72 -9 34 -7 83 -13 109
-13z m577 -494 c-51 -49 -247 -206 -258 -206 -8 0 -12 4 -10 9 10 26 248 211
272 211 6 0 4 -6 -4 -14z m176 -127 c157 -128 508 -428 512 -438 2 -5 -31 -54
-73 -111 -55 -74 -81 -101 -93 -98 -19 5 -683 487 -721 523 l-23 23 127 106
c80 67 131 103 139 99 7 -5 66 -51 132 -104z m-468 -109 c-1 -5 -59 -70 -127
-145 -85 -93 -127 -133 -135 -125 -11 11 1 26 149 178 91 93 123 119 113 92z
m379 -267 c179 -131 328 -243 330 -250 6 -15 3 -20 -101 -147 -43 -53 -84 -96
-91 -96 -13 0 -584 359 -675 424 -27 20 -50 41 -50 47 0 17 231 259 247 259 8
0 161 -107 340 -237z m-1928 92 c17 -8 35 -30 45 -55 15 -39 15 -44 -3 -83
-26 -58 -90 -116 -195 -176 -124 -70 -202 -95 -281 -89 -35 3 -77 14 -95 24
-70 41 -94 157 -42 211 22 25 48 35 157 61 79 19 161 47 210 71 44 22 87 42
95 45 31 9 82 6 109 -9z m1264 -121 c9 -9 -214 -265 -225 -258 -9 6 25 52 137
182 70 82 77 87 88 76z m-886 -41 c48 -23 61 -57 44 -114 -10 -32 -36 -66
-105 -134 -83 -84 -103 -98 -218 -155 -118 -58 -131 -62 -181 -58 -78 6 -139
62 -156 140 -13 64 -6 73 112 147 62 38 128 86 147 106 80 84 257 118 357 68z
m962 -7 c9 -7 122 -80 251 -161 129 -81 247 -157 262 -167 32 -22 30 -30 -26
-93 -20 -22 -55 -63 -78 -92 -24 -29 -47 -52 -51 -53 -5 0 -39 17 -75 39 -106
61 -508 271 -520 271 -5 0 -12 7 -16 15 -4 10 28 55 91 128 54 61 102 115 108
119 16 12 37 9 54 -6z m1225 -48 c8 -32 7 -58 -1 -58 -5 0 -17 7 -27 15 -17
13 -18 18 -6 40 17 31 26 32 34 3z m-20 -67 c15 -16 15 -22 4 -40 -16 -26 -29
-26 -58 -3 -20 16 -21 21 -9 40 17 27 40 28 63 3z m-58 -55 c24 -18 17 -25
-31 -33 l-38 -6 19 26 c22 31 24 31 50 13z m-1815 -35 c22 -23 29 -38 29 -68
-1 -62 -46 -121 -178 -235 -107 -92 -137 -108 -203 -108 -93 0 -154 52 -174
148 -8 40 0 51 76 102 31 22 88 68 127 104 60 55 77 65 119 71 26 4 53 8 58
10 6 2 34 4 63 4 46 1 57 -3 83 -28z m1619 -61 l0 -50 -25 16 c-14 9 -25 20
-25 24 0 8 39 60 46 60 2 0 4 -23 4 -50z m-1269 15 c0 -6 -24 -40 -53 -77 -39
-51 -55 -65 -65 -57 -9 9 0 27 44 80 50 63 75 81 74 54z m94 -38 c11 -8 65
-38 120 -67 214 -113 245 -132 238 -143 -4 -7 -25 -38 -46 -70 -36 -53 -43
-58 -66 -52 -14 3 -71 15 -126 25 -157 30 -325 67 -331 73 -3 3 -1 14 5 25 6
12 11 29 11 39 0 10 29 55 65 101 68 86 89 97 130 69z m1145 -22 c22 -23 22
-25 6 -50 -20 -30 -33 -31 -65 -6 l-24 18 22 32 c27 37 31 38 61 6z m-53 -82
c3 -9 -59 -33 -87 -33 -6 0 1 15 17 34 24 29 31 32 47 21 11 -6 21 -16 23 -22z
m-1325 -16 c25 -39 -8 -108 -100 -208 -58 -64 -85 -74 -144 -59 -60 17 -88 49
-88 104 0 40 4 48 50 89 46 41 105 69 195 91 29 7 78 -2 87 -17z m1028 -24 c0
-44 -19 -87 -40 -90 -8 -2 -25 5 -38 15 l-23 18 19 24 c19 24 21 24 39 7 11
-9 24 -17 29 -17 5 1 -2 10 -15 21 -23 19 -23 20 -6 39 26 29 35 25 35 -17z
m-76 -88 c18 -14 18 -15 -8 -25 -15 -5 -39 -13 -53 -16 l-27 -7 23 31 c25 35
37 38 65 17z m-324 -20 c0 -8 -4 -15 -10 -15 -5 0 -10 7 -10 15 0 8 5 15 10
15 6 0 10 -7 10 -15z m-12 -38 c2 -10 -3 -17 -12 -17 -18 0 -29 16 -21 31 9
14 29 6 33 -14z m-38 -27 c0 -5 -4 -10 -10 -10 -5 0 -10 5 -10 10 0 6 5 10 10
10 6 0 10 -4 10 -10z"/>
<path d="M12500 4680 c-11 -8 -7 -9 15 -4 37 8 45 14 19 14 -10 0 -26 -5 -34
-10z"/>
<path d="M12458 4663 c7 -3 16 -2 19 1 4 3 -2 6 -13 5 -11 0 -14 -3 -6 -6z"/>
<path d="M12335 4635 c-93 -30 -71 -31 30 0 44 13 71 24 60 23 -11 0 -51 -10
-90 -23z"/>
<path d="M12223 4598 c-19 -25 -24 -43 -6 -22 10 12 25 24 33 27 13 5 12 6 -1
6 -9 1 -21 -5 -26 -11z"/>
<path d="M12176 4513 c-6 -14 -5 -15 5 -6 7 7 10 15 7 18 -3 3 -9 -2 -12 -12z"/>
<path d="M12133 4438 c-34 -64 -44 -88 -38 -88 3 0 21 32 40 70 19 39 33 70
30 70 -2 0 -17 -24 -32 -52z"/>
<path d="M12045 4270 c-19 -38 -33 -70 -30 -70 2 0 21 32 40 70 19 39 33 70
30 70 -2 0 -21 -31 -40 -70z"/>
<path d="M11960 4110 c-17 -33 -28 -60 -25 -60 2 0 18 27 35 60 17 33 28 60
25 60 -2 0 -18 -27 -35 -60z"/>
<path d="M11890 3980 c-17 -33 -28 -60 -25 -60 2 0 18 27 35 60 17 33 28 60
25 60 -2 0 -18 -27 -35 -60z"/>
<path d="M11815 3840 c-14 -27 -23 -50 -20 -50 2 0 16 23 30 50 14 28 23 50
20 50 -2 0 -16 -22 -30 -50z"/>
<path d="M13200 4487 c21 -20 390 -269 390 -263 0 5 -316 224 -375 259 -16 11
-23 12 -15 4z"/>
<path d="M13110 4456 c0 -3 33 -27 73 -54 82 -55 107 -70 92 -55 -16 16 -165
114 -165 109z"/>
<path d="M13294 4331 c7 -11 46 -35 46 -28 0 3 -12 12 -26 22 -15 9 -23 12
-20 6z"/>
<path d="M12860 4286 c0 -6 418 -296 427 -296 7 0 -91 70 -299 213 -71 48
-128 86 -128 83z"/>
<path d="M13380 4278 c0 -7 138 -98 147 -98 4 0 -15 15 -42 33 -86 58 -105 69
-105 65z"/>
<path d="M12781 4246 c5 -5 292 -207 404 -284 44 -30 73 -48 65 -40 -18 19
-458 328 -467 328 -4 0 -4 -2 -2 -4z"/>
<path d="M12590 3987 c0 -3 28 -22 63 -43 34 -21 72 -44 85 -52 12 -8 22 -12
22 -9 0 3 -28 22 -62 43 -35 21 -73 44 -85 52 -13 8 -23 12 -23 9z"/>
<path d="M12520 3943 c0 -4 30 -26 66 -48 36 -22 93 -58 127 -80 115 -75 248
-154 243 -146 -3 5 -77 53 -163 107 -87 53 -184 115 -215 136 -32 21 -58 35
-58 31z"/>
<path d="M12770 3877 c0 -3 45 -33 99 -65 54 -33 111 -68 125 -77 14 -10 26
-15 26 -12 0 5 -63 45 -212 136 -21 12 -38 20 -38 18z"/>
</g>
</svg>
