<?xml version="1.0" standalone="no"?>
<!DOCTYPE svg PUBLIC "-//W3C//DTD SVG 20010904//EN"
 "http://www.w3.org/TR/2001/REC-SVG-20010904/DTD/svg10.dtd">
<svg version="1.0" xmlns="http://www.w3.org/2000/svg"
 width="1080.000000pt" height="1080.000000pt" viewBox="0 0 1080.000000 1080.000000"
 preserveAspectRatio="xMidYMid meet">

<g transform="translate(0.000000,1080.000000) scale(0.100000,-0.100000)"
fill="#000000" stroke="none">
<path d="M3418 7307 l-227 -402 641 -3 c580 -2 643 -4 660 -19 25 -22 23 -56
-8 -144 -14 -41 -269 -798 -566 -1684 -297 -885 -587 -1749 -643 -1918 -80
-238 -100 -307 -87 -303 677 219 1127 367 1132 373 4 4 281 827 615 1828 334
1001 614 1830 622 1843 l13 22 583 0 582 0 232 405 232 405 -1777 0 -1777 -1
-227 -402z"/>
<path d="M5442 6028 c-132 -398 -396 -1192 -587 -1766 -191 -574 -345 -1045
-343 -1047 6 -6 998 321 1008 331 4 5 50 136 100 290 l93 282 336 5 c277 4
359 9 466 26 519 84 928 288 1253 625 252 262 414 580 488 961 23 119 24 343
0 438 -74 309 -306 473 -781 553 -87 15 -207 18 -947 21 l-846 4 -240 -723z
m1504 2 c108 -28 180 -65 236 -122 84 -86 105 -187 72 -346 -77 -376 -326
-648 -649 -711 -154 -30 -278 -41 -476 -41 -141 0 -180 3 -176 13 2 7 93 282
202 612 108 330 199 603 202 608 2 4 118 7 257 7 221 0 263 -3 332 -20z"/>
</g>
</svg>
