<?xml version="1.0" standalone="no"?>
<!DOCTYPE svg PUBLIC "-//W3C//DTD SVG 20010904//EN"
 "http://www.w3.org/TR/2001/REC-SVG-20010904/DTD/svg10.dtd">
<svg version="1.0" xmlns="http://www.w3.org/2000/svg"
 width="1080.000000pt" height="1080.000000pt" viewBox="0 0 1080.000000 1080.000000"
 preserveAspectRatio="xMidYMid meet">

<g transform="translate(0.000000,1080.000000) scale(0.100000,-0.100000)"
fill="#000000" stroke="none">
<path d="M3418 8527 l-227 -402 643 -5 c696 -5 676 -4 676 -60 0 -15 -18 -80
-41 -146 -23 -65 -273 -810 -556 -1654 -283 -844 -566 -1687 -628 -1873 -89
-262 -110 -337 -97 -333 383 123 1127 367 1132 373 4 4 280 827 615 1828 334
1001 614 1830 622 1843 l13 22 583 0 582 0 232 405 232 405 -1777 0 -1777 0
-227 -403z"/>
<path d="M5435 7228 c-136 -409 -400 -1204 -587 -1766 -187 -563 -338 -1025
-336 -1027 6 -6 997 320 1007 331 5 5 51 136 102 290 l92 282 336 5 c362 5
476 17 700 73 302 75 615 227 831 404 205 167 389 390 492 593 152 304 227
637 198 881 -45 378 -270 563 -795 652 -87 15 -208 18 -947 21 l-846 4 -247
-743z m1511 22 c260 -66 359 -214 310 -460 -78 -382 -325 -656 -651 -719 -154
-30 -278 -41 -476 -41 -146 0 -180 3 -176 13 3 8 94 283 202 613 109 329 199
602 202 607 2 4 118 7 257 7 221 0 263 -3 332 -20z"/>
<path d="M1245 3930 c-4 -6 9 -17 27 -24 18 -8 568 -211 1223 -452 655 -240
1192 -439 1194 -440 2 -2 -20 -39 -48 -83 -98 -153 -194 -351 -276 -569 -24
-65 -30 -73 -49 -68 -12 3 -237 53 -501 111 -264 58 -712 157 -995 220 -633
140 -638 141 -647 132 -16 -17 25 -29 267 -82 566 -124 1659 -366 1715 -379
33 -8 81 -18 106 -21 26 -4 80 -23 120 -43 69 -35 76 -41 104 -97 42 -84 98
-158 153 -202 26 -20 51 -40 55 -44 5 -4 2 -20 -7 -37 -20 -39 -21 -109 -1
-154 18 -45 74 -94 122 -107 53 -15 143 -14 191 3 l40 14 4 -52 c9 -109 90
-195 192 -204 49 -4 87 7 191 54 6 3 16 -21 23 -55 15 -74 49 -116 117 -147
82 -39 169 -26 247 36 20 17 39 30 41 30 3 0 7 -17 11 -38 10 -67 79 -112 169
-112 52 0 52 0 128 80 l77 79 258 -49 c142 -27 265 -52 272 -55 23 -9 89 14
122 41 24 21 30 34 30 65 l0 40 93 -50 92 -49 50 13 c73 20 137 49 159 74 13
15 21 41 24 81 2 33 7 60 10 60 2 0 33 -18 67 -39 55 -35 66 -38 101 -31 165
31 215 77 218 197 0 29 3 52 6 50 51 -28 63 -30 114 -20 123 26 157 60 162
163 l2 55 78 28 c95 33 151 65 226 128 32 26 77 54 100 63 24 9 90 33 148 54
58 22 224 84 370 139 359 136 450 165 700 223 284 67 711 161 883 196 129 26
156 37 123 50 -26 10 -450 -81 -1161 -248 -125 -29 -326 -101 -919 -327 -87
-34 -162 -61 -166 -61 -4 0 -1 19 7 42 18 52 14 92 -9 96 -15 3 -18 -4 -18
-39 0 -113 -118 -225 -306 -289 l-56 -20 -28 23 c-15 12 -115 97 -221 189
-107 92 -223 190 -259 219 -36 28 -66 55 -68 59 -1 3 48 12 110 19 182 20 308
54 308 81 0 10 -21 7 -85 -10 -65 -18 -296 -50 -360 -50 -33 0 -117 70 -498
413 -159 143 -176 162 -157 169 12 4 20 14 18 20 -3 9 -25 12 -74 10 -61 -3
-234 14 -234 23 0 2 14 27 32 54 40 66 28 79 -19 21 -20 -25 -76 -85 -126
-134 -75 -74 -103 -95 -180 -131 -101 -48 -282 -105 -331 -105 -54 0 -104 20
-131 52 -41 48 -32 73 50 136 133 102 334 312 396 415 21 34 53 75 70 91 28
25 37 27 73 22 238 -38 710 -65 828 -47 89 14 81 17 206 -73 317 -228 399
-274 641 -358 132 -45 193 -75 274 -131 31 -22 60 -37 63 -34 14 14 -8 38 -72
81 -44 29 -63 47 -53 51 8 2 181 61 384 131 940 319 1264 435 1660 591 194 77
338 144 350 163 15 25 -8 20 -92 -18 -106 -49 -272 -117 -448 -184 -288 -110
-1169 -419 -1590 -558 -104 -34 -217 -74 -249 -87 -68 -28 -61 -29 -226 30
-255 91 -225 75 -523 281 l-218 151 -232 -3 c-233 -3 -340 3 -606 35 -166 20
-173 18 -231 -60 l-35 -47 -155 0 c-259 -1 -394 -30 -477 -104 -41 -37 -56
-44 -108 -50 -130 -15 -401 -92 -493 -140 -25 -13 -31 -12 -67 10 -51 31 -62
30 -100 -5 l-30 -28 -1160 428 c-638 235 -1181 437 -1208 448 -52 23 -82 26
-92 11z m3865 -607 c-1 -19 -29 -55 -77 -98 l-52 -46 -162 -10 c-89 -5 -165
-12 -169 -14 -16 -10 -132 -7 -142 3 -6 6 -7 23 -3 41 12 54 121 102 275 120
95 11 330 13 330 4z m-636 -167 c8 -31 33 -40 214 -75 83 -17 157 -33 162 -36
12 -7 -90 -98 -140 -124 -19 -10 -100 -37 -179 -60 -80 -22 -148 -44 -152 -48
-11 -13 -309 -571 -337 -632 -14 -31 -47 -93 -73 -137 -39 -65 -54 -83 -76
-87 -15 -3 -53 -13 -83 -22 -102 -31 -92 -34 -172 46 -47 48 -86 99 -111 145
l-37 71 16 54 c15 49 350 725 375 755 10 13 88 53 154 79 74 30 343 91 411 94
15 1 24 -7 28 -23z m446 -50 l-35 -35 -54 14 c-30 8 -76 18 -103 21 -26 4 -48
10 -48 15 0 9 58 15 185 17 l90 2 -35 -34z m-1100 -61 c17 -9 30 -18 30 -22 0
-3 -17 -38 -39 -77 -125 -230 -315 -616 -344 -699 -6 -17 -9 -16 -49 4 -24 12
-44 23 -46 24 -11 10 146 375 216 502 71 127 178 283 194 283 5 0 22 -7 38
-15z m1719 -65 c29 -5 75 -10 101 -10 47 0 51 -2 152 -97 57 -54 172 -159 256
-233 84 -74 152 -137 152 -141 0 -4 -15 -16 -34 -27 -175 -103 -586 -526 -880
-906 -45 -58 -65 -76 -83 -76 -14 0 -52 -7 -85 -16 -33 -8 -62 -13 -64 -11 -2
2 3 19 13 37 21 43 21 111 0 144 -32 48 -59 58 -152 57 -48 -1 -97 -4 -111 -7
-28 -7 -28 -10 -8 49 13 38 14 53 4 82 -33 99 -206 127 -371 61 -12 -6 -15 2
-15 42 0 138 -143 195 -286 114 -58 -33 -158 -74 -158 -64 0 3 97 187 216 409
l216 403 87 25 c47 15 95 29 106 31 11 3 27 8 36 10 12 3 19 -6 27 -39 13 -49
41 -79 94 -102 61 -25 136 -19 261 21 173 56 259 102 355 189 56 51 89 74 100
71 9 -3 41 -10 71 -16z m701 -514 c0 -8 -269 -226 -279 -226 -22 0 -10 18 47
66 123 106 232 182 232 160z m221 -178 c101 -84 243 -202 314 -263 71 -60 140
-119 154 -131 l24 -21 -77 -106 c-43 -59 -82 -110 -87 -113 -13 -8 -20 -2
-319 216 -140 102 -301 220 -357 261 -57 41 -103 79 -103 85 0 12 246 224 259
224 4 0 90 -69 192 -152z m-609 -166 c-49 -53 -110 -119 -135 -147 -35 -39
-48 -47 -57 -38 -10 9 19 43 125 152 76 77 142 138 147 135 5 -3 -31 -49 -80
-102z m453 -172 c182 -133 339 -249 350 -260 19 -19 19 -20 -5 -52 -32 -45
-169 -206 -179 -213 -8 -4 -209 120 -608 375 -61 40 -121 83 -134 96 l-22 23
128 136 c70 74 131 135 134 135 3 0 155 -108 336 -240z m-1990 86 c19 -8 41
-28 49 -45 47 -90 -18 -182 -198 -284 -122 -70 -217 -101 -287 -94 -115 10
-172 64 -173 164 -1 81 27 104 168 138 119 29 225 67 266 96 53 37 122 47 175
25z m1318 -132 c6 -7 -212 -264 -224 -264 -18 0 -7 19 54 91 146 176 156 186
170 173z m-940 -28 c55 -20 77 -43 77 -83 0 -102 -155 -255 -357 -354 -90 -43
-118 -52 -164 -53 -46 -1 -62 4 -92 26 -72 56 -109 157 -71 199 11 12 60 46
111 75 51 30 116 77 146 104 91 83 248 122 350 86z m1032 -26 c11 -9 130 -86
265 -170 248 -155 280 -177 280 -190 0 -9 -179 -220 -186 -220 -2 0 -77 40
-167 89 -89 49 -229 123 -312 166 -82 42 -151 83 -153 90 -3 13 87 123 176
217 46 48 59 51 97 18z m1260 -56 c8 -46 -5 -61 -30 -34 -16 18 -17 23 -5 45
18 34 27 31 35 -11z m-26 -55 c20 -19 21 -23 8 -42 -19 -28 -28 -30 -57 -8
-21 17 -23 22 -12 45 14 31 31 33 61 5z m-46 -75 c-3 -10 -63 -28 -70 -20 -2
2 3 16 13 30 15 24 19 25 38 13 11 -8 20 -18 19 -23z m-1889 -25 c64 -75 20
-158 -169 -318 -121 -103 -168 -121 -249 -97 -27 8 -62 27 -78 43 -32 31 -64
124 -51 147 5 9 37 35 73 60 35 25 92 73 127 107 73 72 113 87 240 88 79 1 82
0 107 -30z m1672 -107 c-7 -7 -46 28 -46 41 0 6 10 22 23 35 l22 24 3 -47 c2
-26 1 -50 -2 -53z m-1310 63 c-3 -8 -29 -44 -57 -80 -40 -50 -55 -62 -65 -54
-11 9 -2 26 42 80 31 38 63 69 71 69 9 0 13 -6 9 -15z m274 -136 c224 -120
209 -104 163 -166 -21 -28 -43 -59 -49 -69 -10 -18 -14 -18 -80 -2 -38 9 -147
31 -242 49 -95 18 -177 36 -183 40 -8 5 -8 12 0 27 6 11 11 31 11 43 0 21 90
144 132 181 23 21 0 30 248 -103z m1010 76 l24 -25 -20 -27 c-27 -35 -34 -36
-67 -9 l-28 23 26 31 c15 18 30 32 34 32 4 0 18 -11 31 -25z m-66 -74 c17 -19
16 -20 -35 -35 -29 -9 -54 -16 -56 -16 -2 0 8 16 23 35 30 40 44 43 68 16z
m-1363 -32 c20 -38 1 -83 -71 -169 -95 -115 -124 -128 -210 -94 -52 21 -74 61
-65 115 5 30 17 48 57 81 91 76 263 116 289 67z m1069 -31 c0 -32 -7 -34 -39
-12 l-22 16 22 24 c26 27 39 18 39 -28z m-31 -32 c20 -22 21 -25 6 -40 -21
-21 -27 -20 -59 5 -26 20 -26 22 -10 40 23 25 36 24 63 -5z m-46 -66 c-12 -11
-84 -33 -89 -27 -3 2 7 18 21 36 26 30 27 30 51 14 14 -9 21 -19 17 -23z
m-343 -5 c0 -8 -4 -15 -10 -15 -5 0 -10 7 -10 15 0 8 5 15 10 15 6 0 10 -7 10
-15z m-15 -41 c0 -10 -6 -18 -13 -16 -7 1 -20 -5 -29 -13 -8 -9 -18 -13 -22
-10 -3 4 1 12 10 18 8 7 18 20 22 30 9 23 32 17 32 -9z"/>
<path d="M4650 2930 c-11 -8 -7 -9 15 -4 37 8 45 14 19 14 -10 0 -26 -5 -34
-10z"/>
<path d="M4560 2905 c-47 -18 -27 -18 30 -1 25 8 36 15 25 15 -11 0 -36 -7
-55 -14z"/>
<path d="M4430 2870 c-74 -24 -51 -25 30 -1 36 11 56 19 45 19 -11 0 -45 -8
-75 -18z"/>
<path d="M4350 2830 c-6 -11 -8 -20 -6 -20 3 0 10 9 16 20 6 11 8 20 6 20 -3
0 -10 -9 -16 -20z"/>
<path d="M4237 2623 c-113 -212 -149 -283 -143 -283 2 0 34 57 71 128 37 70
92 173 122 230 30 56 53 102 50 102 -3 0 -48 -80 -100 -177z"/>
<path d="M4050 2270 c-17 -33 -28 -60 -25 -60 2 0 18 27 35 60 17 33 28 60 25
60 -2 0 -18 -27 -35 -60z"/>
<path d="M3970 2120 c-17 -33 -28 -60 -25 -60 2 0 18 27 35 60 17 33 28 60 25
60 -2 0 -18 -27 -35 -60z"/>
<path d="M3920 2029 c-7 -11 -10 -23 -7 -25 2 -2 9 7 15 21 14 30 7 33 -8 4z"/>
<path d="M5350 2746 c0 -3 41 -34 92 -68 114 -78 118 -80 118 -74 0 3 -41 34
-92 68 -114 78 -118 80 -118 74z"/>
<path d="M5280 2696 c0 -3 33 -27 73 -54 82 -55 107 -70 92 -55 -16 16 -165
114 -165 109z"/>
<path d="M5570 2596 c0 -4 158 -113 190 -131 32 -17 -7 13 -85 67 -92 63 -105
71 -105 64z"/>
<path d="M5460 2575 c0 -2 51 -38 113 -78 133 -87 137 -89 137 -84 0 5 -35 28
-167 114 -46 29 -83 51 -83 48z"/>
<path d="M5011 2522 c23 -17 72 -52 272 -189 45 -31 104 -72 130 -91 26 -19
50 -33 52 -30 2 2 -33 29 -78 60 -45 31 -151 104 -235 162 -85 58 -156 106
-159 106 -3 0 5 -8 18 -18z"/>
<path d="M4953 2468 c10 -7 89 -62 175 -123 167 -117 187 -131 257 -183 25
-18 45 -29 45 -25 0 9 -465 336 -484 341 -6 1 -3 -3 7 -10z"/>
<path d="M4710 2226 c0 -2 21 -17 48 -32 26 -15 57 -34 70 -42 12 -8 22 -12
22 -9 0 5 -128 87 -136 87 -2 0 -4 -2 -4 -4z"/>
<path d="M4660 2166 c0 -2 15 -13 33 -24 17 -10 126 -79 241 -151 115 -72 210
-130 212 -129 1 2 -43 32 -99 68 -56 35 -164 104 -241 152 -135 86 -146 92
-146 84z"/>
<path d="M4860 2137 c0 -3 44 -32 98 -65 119 -73 122 -74 122 -68 0 2 -39 28
-87 57 -49 29 -98 59 -110 67 -13 8 -23 12 -23 9z"/>
<path d="M5090 1997 c0 -6 98 -67 107 -67 8 0 -13 15 -69 49 -21 12 -38 20
-38 18z"/>
</g>
</svg>
