<?xml version="1.0" standalone="no"?>
<!DOCTYPE svg PUBLIC "-//W3C//DTD SVG 20010904//EN"
 "http://www.w3.org/TR/2001/REC-SVG-20010904/DTD/svg10.dtd">
<svg version="1.0" xmlns="http://www.w3.org/2000/svg"
 width="2160.000000pt" height="1080.000000pt" viewBox="0 0 2160.000000 1080.000000"
 preserveAspectRatio="xMidYMid meet">

<g transform="translate(0.000000,1080.000000) scale(0.100000,-0.100000)"
fill="#000000" stroke="none">
<path d="M4018 7447 l-227 -402 641 -3 c705 -2 678 0 678 -62 0 -15 -27 -105
-60 -201 -32 -96 -284 -844 -559 -1664 -274 -819 -549 -1638 -610 -1818 -86
-256 -106 -327 -93 -323 893 290 1126 367 1132 373 4 4 281 827 615 1828 334
1001 614 1830 622 1843 l13 22 583 0 582 0 232 405 232 405 -1777 0 -1777 -1
-227 -402z"/>
<path d="M10652 7794 c-181 -48 -354 -197 -448 -383 -30 -59 -38 -89 -42 -146
-5 -88 13 -134 67 -167 32 -21 48 -23 151 -22 95 0 125 4 171 22 132 52 266
163 350 290 65 98 89 166 89 250 0 84 -23 125 -83 152 -51 24 -176 26 -255 4z
m255 -27 c160 -84 1 -440 -265 -596 -100 -58 -162 -76 -267 -76 -104 0 -137
13 -173 65 -50 73 -8 221 103 368 83 110 220 205 350 244 75 22 205 20 252 -5z"/>
<path d="M10650 7671 c-117 -38 -242 -163 -291 -291 -27 -71 -24 -104 10 -142
27 -30 35 -33 84 -33 77 1 151 40 225 120 116 123 165 271 108 324 -27 25 -93
36 -136 22z m95 -25 c44 -19 53 -52 32 -120 -49 -154 -204 -298 -325 -300 -36
-1 -48 4 -68 27 -28 33 -29 41 -8 104 33 95 133 221 208 260 29 15 101 41 119
42 4 1 23 -5 42 -13z"/>
<path d="M7890 7455 c-107 -191 -196 -353 -198 -361 -3 -11 14 -14 86 -14 l90
0 74 133 c54 98 79 133 95 135 34 5 53 -33 53 -109 0 -36 3 -87 6 -113 l7 -46
98 0 98 0 -5 68 c-10 123 -22 217 -28 233 -5 12 8 23 57 47 114 56 207 173
207 261 0 95 -23 105 -260 109 l-185 4 -195 -347z m545 314 c77 -21 93 -63 55
-146 -38 -84 -120 -153 -233 -197 -37 -15 -38 -16 -22 -39 16 -25 35 -154 35
-239 l0 -48 -74 0 -73 0 -7 46 c-3 26 -6 75 -6 109 0 75 -24 115 -69 115 -36
0 -46 -12 -121 -148 -34 -63 -68 -116 -75 -118 -7 -3 -37 -4 -68 -2 l-56 3
165 295 c91 162 177 314 190 338 l25 42 147 0 c81 0 165 -5 187 -11z"/>
<path d="M8166 7658 c-45 -73 -95 -171 -90 -179 9 -15 113 -10 147 7 63 32
117 98 117 142 0 35 -32 52 -98 52 -53 0 -64 -3 -76 -22z m144 -13 c40 -48
-84 -160 -170 -153 l-39 3 46 83 45 82 53 0 c34 0 57 -5 65 -15z"/>
<path d="M8820 7454 c-107 -190 -196 -352 -198 -360 -3 -11 14 -14 86 -14 l90
0 196 350 c108 192 196 354 196 360 0 6 -34 10 -88 10 l-88 0 -194 -346z m340
322 c0 -8 -363 -651 -375 -664 -8 -9 -32 -12 -73 -10 l-61 3 165 295 c91 162
177 314 190 338 l25 42 64 0 c36 0 65 -2 65 -4z"/>
<path d="M9505 7739 c-51 -88 -51 -89 55 -89 50 0 90 -2 90 -3 0 -2 -67 -124
-150 -270 -82 -147 -150 -274 -150 -282 0 -13 14 -15 87 -13 l87 3 158 280
157 280 102 5 103 5 32 55 c58 96 75 90 -251 90 l-284 0 -36 -61z m552 -14
l-31 -55 -98 0 -98 0 -23 -37 c-13 -21 -86 -149 -162 -285 l-138 -248 -69 0
-68 0 14 23 c69 111 296 529 291 537 -3 6 -44 10 -91 10 -46 0 -84 3 -84 6 0
3 12 28 28 55 l27 49 267 0 267 0 -32 -55z"/>
<path d="M11310 7454 c-107 -190 -196 -352 -198 -360 -3 -12 11 -14 83 -12
l87 3 126 227 c70 124 128 225 129 225 2 -2 43 -428 43 -446 0 -8 25 -11 91
-9 l91 3 194 345 c107 189 194 350 194 357 0 10 -22 13 -83 13 l-82 0 -128
-227 c-73 -132 -127 -218 -127 -205 0 32 -29 359 -36 400 l-5 32 -92 0 -93 0
-194 -346z m361 324 c1 -2 11 -108 23 -236 12 -131 25 -233 31 -234 6 0 69
104 141 233 l132 234 61 3 c34 2 61 0 61 -3 0 -4 -84 -157 -187 -340 l-188
-335 -72 0 c-40 0 -73 3 -73 8 0 24 -42 459 -46 470 -2 7 -8 11 -13 8 -5 -3
-69 -114 -143 -246 l-133 -240 -63 0 c-62 0 -63 0 -51 23 24 44 332 593 351
625 19 31 21 32 94 32 41 0 74 -1 75 -2z"/>
<path d="M6042 6168 c-132 -398 -396 -1193 -587 -1766 -191 -574 -345 -1045
-343 -1047 6 -6 997 320 1007 331 5 5 51 136 101 292 l93 282 271 0 c291 1
401 8 594 41 697 117 1282 545 1535 1122 111 255 161 462 161 677 0 160 -18
249 -69 355 -103 216 -330 343 -730 411 -87 15 -207 18 -947 21 l-846 4 -240
-723z m1504 2 c105 -27 179 -64 232 -117 67 -67 87 -120 87 -228 0 -211 -104
-452 -265 -616 -191 -194 -358 -246 -814 -256 -212 -5 -239 -4 -233 10 3 8 94
284 203 614 108 329 198 601 201 606 2 4 118 7 257 7 221 0 263 -3 332 -20z"/>
<path d="M10659 6780 c-167 -42 -337 -171 -433 -329 -145 -238 -76 -398 162
-378 202 17 411 172 518 382 78 154 70 261 -22 309 -44 23 -163 32 -225 16z
m81 -135 c53 -27 52 -97 -1 -202 -38 -75 -116 -165 -172 -197 -95 -56 -198
-56 -227 -2 -17 33 -7 102 24 164 90 177 271 291 376 237z"/>
<path d="M11613 6775 c-162 -44 -293 -171 -293 -286 0 -46 18 -68 100 -122 79
-51 88 -80 42 -126 -64 -65 -205 -67 -274 -4 -10 9 -20 14 -22 12 -9 -9 -76
-131 -76 -138 0 -31 174 -51 274 -32 124 23 229 95 287 196 56 97 34 162 -76
224 -62 35 -77 66 -51 106 23 36 72 57 141 62 49 4 68 0 106 -19 l46 -24 37
69 c21 38 36 71 33 74 -25 24 -194 29 -274 8z"/>
<path d="M16702 6775 c-131 -31 -296 -140 -384 -252 -168 -215 -176 -399 -20
-443 55 -15 178 -11 252 8 64 17 65 17 101 82 20 36 36 66 35 66 0 1 -32 -6
-71 -16 -85 -23 -135 -24 -178 -7 -46 20 -60 42 -60 92 0 104 115 255 241 317
57 28 76 33 142 32 51 0 85 -5 107 -17 32 -17 33 -17 46 5 41 68 68 120 64
125 -24 24 -191 29 -275 8z"/>
<path d="M17513 6775 c-162 -44 -293 -171 -293 -285 0 -46 20 -73 78 -107 99
-56 115 -92 64 -143 -64 -64 -205 -65 -274 -3 -10 9 -20 14 -22 12 -9 -9 -76
-131 -76 -138 0 -31 174 -51 274 -32 124 23 229 95 287 196 56 97 34 162 -76
224 -83 47 -84 104 -2 148 48 26 161 24 208 -3 l35 -21 38 69 c21 38 36 72 33
75 -25 24 -194 29 -274 8z"/>
<path d="M9394 6533 c-75 -137 -163 -294 -195 -350 l-58 -103 78 0 77 0 75
135 c71 129 75 135 106 135 46 0 63 -29 63 -111 0 -36 3 -87 6 -113 l7 -46 86
0 87 0 -11 129 c-8 92 -16 137 -29 156 -10 15 -16 28 -14 29 2 2 33 17 70 34
114 52 199 150 215 246 4 28 1 39 -20 59 -37 38 -87 47 -254 47 l-151 0 -138
-247z m364 115 c31 -31 -7 -105 -77 -149 -36 -23 -56 -29 -103 -29 -32 0 -58
3 -58 6 0 6 44 87 82 152 19 31 22 32 82 32 35 0 67 -5 74 -12z"/>
<path d="M12225 6723 c-16 -31 -31 -60 -33 -64 -2 -5 40 -10 92 -11 l96 -3
-155 -279 c-85 -154 -155 -281 -155 -283 0 -2 34 -3 76 -1 l77 3 156 280 156
280 103 5 103 5 35 63 35 62 -278 0 -278 0 -30 -57z"/>
<path d="M13054 6533 c-75 -137 -163 -294 -195 -350 l-58 -103 77 0 78 0 80
143 79 142 143 3 c93 2 142 -1 142 -8 0 -7 -96 -185 -147 -272 -2 -5 31 -8 74
-8 l78 0 190 341 c105 187 192 345 193 350 3 6 -27 9 -74 7 l-77 -3 -76 -137
-76 -138 -148 0 -149 0 20 33 c38 63 132 235 132 241 0 3 -33 6 -74 6 l-74 0
-138 -247z"/>
<path d="M14094 6533 c-75 -137 -163 -294 -195 -350 l-58 -103 209 0 208 0 35
63 35 62 -129 5 -129 5 43 75 43 75 117 3 117 3 27 52 c16 29 29 55 31 60 2 4
-46 7 -107 7 -61 0 -111 2 -111 5 0 3 19 39 42 80 l42 74 124 3 125 3 35 63
34 62 -200 0 -200 0 -138 -247z"/>
<path d="M14945 6723 c-16 -31 -31 -60 -33 -64 -2 -5 40 -10 92 -11 l96 -3
-155 -279 c-85 -154 -155 -281 -155 -283 0 -2 34 -3 76 -1 l77 3 156 280 156
280 103 5 103 5 35 63 35 62 -278 0 -278 0 -30 -57z"/>
<path d="M15814 6623 c-48 -87 -136 -245 -195 -350 l-108 -193 77 0 78 0 192
344 c106 189 192 347 192 350 0 3 -33 6 -74 6 l-74 0 -88 -157z"/>
</g>
</svg>
