<?xml version="1.0" standalone="no"?>
<!DOCTYPE svg PUBLIC "-//W3C//DTD SVG 20010904//EN"
 "http://www.w3.org/TR/2001/REC-SVG-20010904/DTD/svg10.dtd">
<svg version="1.0" xmlns="http://www.w3.org/2000/svg"
 width="2160.000000pt" height="1080.000000pt" viewBox="0 0 2160.000000 1080.000000"
 preserveAspectRatio="xMidYMid meet">

<g transform="translate(0.000000,1080.000000) scale(0.100000,-0.100000)"
fill="#000000" stroke="none">
<path d="M4018 7447 l-227 -402 641 -3 c705 -2 678 0 678 -62 0 -15 -27 -105
-60 -201 -32 -96 -284 -844 -559 -1664 -274 -819 -549 -1638 -610 -1818 -86
-256 -106 -327 -93 -323 893 290 1126 367 1132 373 4 4 281 827 615 1828 334
1001 614 1830 622 1843 l13 22 583 0 582 0 232 405 232 405 -1777 0 -1777 -1
-227 -402z"/>
<path d="M10731 7825 c-146 -41 -287 -162 -393 -337 -55 -89 -81 -164 -86
-243 -3 -61 -1 -74 20 -105 49 -73 202 -77 342 -10 171 82 363 332 398 516 10
53 9 65 -10 106 -13 31 -31 52 -52 63 -45 23 -154 28 -219 10z m207 -29 c42
-22 55 -55 50 -128 -9 -148 -169 -384 -331 -489 -98 -63 -222 -92 -303 -70
-58 16 -77 41 -82 109 -15 204 251 536 474 591 51 13 156 6 192 -13z"/>
<path d="M10672 7726 c-109 -52 -236 -207 -289 -352 -52 -145 -14 -214 111
-201 108 11 211 87 301 222 105 157 134 271 82 323 -39 39 -132 42 -205 8z
m182 -17 c22 -17 26 -28 26 -69 0 -86 -122 -293 -219 -369 -99 -79 -216 -104
-261 -56 -20 21 -22 31 -17 76 15 122 158 339 262 397 84 47 165 55 209 21z"/>
<path d="M8277 7821 l-58 -6 -199 -355 c-110 -195 -196 -358 -191 -363 4 -4
30 -7 57 -5 l48 3 87 155 88 155 38 -4 c21 -1 41 -5 46 -8 4 -2 7 -30 7 -62 0
-32 3 -99 6 -149 l7 -92 65 0 64 0 -6 108 c-4 59 -9 135 -12 170 -6 56 -5 62
12 62 28 0 113 53 158 97 117 115 138 242 47 281 -40 16 -174 23 -264 13z
m260 -34 c51 -27 56 -67 17 -145 -33 -67 -127 -153 -199 -183 l-57 -24 6 -95
c4 -52 9 -125 12 -162 l6 -68 -46 0 -46 0 -1 48 c-1 26 -4 94 -8 152 l-6 105
-55 8 c-66 9 -54 22 -162 -170 -79 -142 -80 -143 -114 -143 -20 0 -34 4 -32 8
2 5 88 160 192 345 l190 336 50 4 c97 8 221 0 253 -16z"/>
<path d="M8274 7732 c-20 -13 -136 -231 -128 -243 11 -18 162 -6 204 15 71 37
130 114 130 171 0 40 -50 65 -130 65 -36 0 -70 -4 -76 -8z m151 -22 c53 -20
45 -69 -23 -139 -53 -55 -94 -71 -184 -71 l-56 0 61 110 62 110 57 0 c31 0 68
-4 83 -10z"/>
<path d="M9082 7763 c-21 -38 -97 -171 -167 -298 -71 -126 -145 -259 -166
-294 -21 -36 -36 -68 -33 -73 3 -4 29 -8 57 -8 l52 1 200 356 c110 196 201
363 203 370 3 9 -11 13 -52 13 l-55 0 -39 -67z m118 43 c0 -7 -381 -680 -389
-689 -5 -5 -22 -7 -39 -5 l-31 3 196 348 195 347 34 0 c19 0 34 -2 34 -4z"/>
<path d="M9612 7818 c-15 -19 -42 -76 -42 -88 0 -6 38 -10 105 -10 58 0 105
-2 105 -4 0 -2 -76 -139 -170 -305 -93 -166 -170 -306 -170 -312 0 -6 22 -9
56 -7 l56 3 176 312 175 312 121 3 120 3 23 40 c12 22 23 46 23 53 0 9 -63 12
-284 12 -215 0 -286 -3 -294 -12z m538 -40 l-20 -33 -121 -5 -121 -5 -174
-310 -174 -310 -36 -3 c-27 -3 -35 0 -31 10 3 7 79 145 171 307 91 162 163
298 160 303 -3 4 -52 8 -109 8 l-104 0 20 35 21 35 269 0 269 0 -20 -32z"/>
<path d="M11341 7472 c-111 -197 -201 -364 -201 -371 0 -8 16 -11 52 -9 l52 3
136 242 c74 133 138 238 141 235 3 -4 16 -83 28 -177 43 -323 41 -315 65 -315
17 0 56 63 225 364 113 200 204 368 203 372 -1 5 -25 9 -53 9 l-51 0 -131
-234 c-112 -199 -132 -230 -139 -210 -4 13 -21 114 -38 224 -17 110 -32 206
-35 213 -2 6 -15 12 -29 12 -21 0 -47 -41 -225 -358z m264 161 c46 -297 50
-318 60 -317 6 0 73 112 149 247 140 247 140 247 174 247 l34 0 -25 -42 c-13
-24 -102 -182 -197 -353 -96 -170 -175 -312 -177 -314 -9 -12 -16 26 -48 259
-19 140 -39 258 -44 263 -5 5 -38 -43 -78 -115 -38 -68 -104 -185 -147 -260
-76 -135 -78 -138 -111 -138 l-34 0 78 138 c42 75 131 233 196 349 66 117 125
213 131 213 7 0 22 -70 39 -177z"/>
<path d="M6042 6168 c-132 -398 -396 -1193 -587 -1766 -191 -574 -345 -1045
-343 -1047 6 -6 997 320 1007 331 5 5 51 136 101 292 l93 282 271 0 c291 1
401 8 594 41 697 117 1282 545 1535 1122 111 255 161 462 161 677 0 160 -18
249 -69 355 -103 216 -330 343 -730 411 -87 15 -207 18 -947 21 l-846 4 -240
-723z m1504 2 c105 -27 179 -64 232 -117 67 -67 87 -120 87 -228 0 -211 -104
-452 -265 -616 -191 -194 -358 -246 -814 -256 -212 -5 -239 -4 -233 10 3 8 94
284 203 614 108 329 198 601 201 606 2 4 118 7 257 7 221 0 263 -3 332 -20z"/>
<path d="M10660 6795 c-222 -62 -470 -373 -470 -588 0 -54 3 -62 33 -92 91
-91 317 -34 472 119 214 212 301 486 175 551 -45 23 -145 28 -210 10z m119
-90 c16 -8 31 -22 35 -30 31 -81 -51 -260 -179 -391 -84 -85 -137 -115 -221
-122 -58 -4 -64 -3 -89 23 -26 25 -27 31 -22 86 13 147 165 362 300 425 60 27
133 32 176 9z"/>
<path d="M11559 6796 c-124 -33 -238 -148 -256 -260 -7 -47 12 -75 87 -126 75
-51 83 -76 48 -140 -52 -94 -180 -137 -270 -91 l-37 18 -42 -43 -41 -42 32
-17 c103 -53 275 -12 391 92 45 41 99 143 99 187 0 43 -20 69 -90 116 -32 22
-61 49 -65 60 -15 48 52 144 118 169 44 17 109 13 144 -9 l32 -19 35 41 c20
22 33 44 31 48 -7 12 -90 30 -132 29 -21 0 -59 -6 -84 -13z"/>
<path d="M16571 6794 c-173 -46 -348 -205 -443 -402 -68 -141 -64 -258 11
-297 71 -36 201 -26 308 24 58 28 59 29 55 65 -2 20 -5 36 -7 36 -1 0 -24 -12
-49 -26 -61 -34 -158 -44 -204 -20 -61 31 -65 122 -10 230 118 232 331 365
482 302 33 -14 34 -13 72 25 44 46 41 51 -39 69 -63 13 -110 12 -176 -6z"/>
<path d="M17379 6796 c-99 -26 -201 -113 -239 -202 -38 -87 -25 -119 70 -184
74 -50 83 -76 49 -139 -49 -94 -181 -138 -271 -92 l-37 18 -42 -43 -41 -42 32
-17 c103 -53 275 -12 391 92 45 41 99 143 99 187 0 43 -20 69 -90 116 -66 45
-76 65 -60 114 12 38 76 101 116 116 41 16 106 11 141 -10 l32 -19 36 41 c39
46 36 55 -21 69 -52 12 -110 10 -165 -5z"/>
<path d="M9660 6793 l-55 -4 -165 -296 c-91 -163 -180 -323 -197 -355 l-33
-58 48 0 47 0 88 160 88 159 47 -6 c26 -3 50 -11 54 -17 4 -6 8 -34 8 -62 0
-28 3 -92 6 -142 l7 -92 55 0 55 0 -7 68 c-3 37 -9 113 -12 170 -6 91 -5 102
10 102 49 0 161 80 208 147 66 97 69 177 6 209 -31 16 -160 25 -258 17z m147
-94 c53 -20 57 -55 12 -122 -47 -71 -103 -100 -206 -105 -45 -3 -83 -1 -83 3
0 5 28 59 62 122 l62 113 63 0 c34 0 74 -5 90 -11z"/>
<path d="M12157 6755 l-25 -44 113 -3 112 -3 -173 -310 -173 -310 35 -3 c20
-2 42 -1 49 2 7 2 90 144 185 315 l172 310 121 3 122 3 23 43 23 42 -279 0
-280 0 -25 -45z"/>
<path d="M12930 6449 c-107 -194 -197 -356 -199 -361 -2 -5 18 -8 44 -6 l47 3
96 173 96 172 159 0 158 0 -29 -52 c-16 -29 -59 -106 -96 -170 -36 -65 -66
-120 -66 -123 0 -4 21 -5 46 -3 l46 3 162 290 c89 160 178 320 199 358 l38 67
-48 0 -48 -1 -80 -144 -80 -145 -158 0 -158 0 12 23 c6 12 28 51 49 87 20 36
51 91 69 123 l32 57 -48 0 -48 0 -195 -351z"/>
<path d="M13890 6449 c-107 -193 -196 -354 -198 -360 -2 -5 80 -9 207 -9 l211
0 20 40 c11 21 20 42 20 44 0 3 -72 7 -159 8 l-160 3 72 127 72 128 117 0 118
0 20 40 20 39 -114 3 -115 3 55 98 55 97 164 0 163 0 25 45 26 45 -212 0 -212
0 -195 -351z"/>
<path d="M14837 6755 l-25 -44 112 -3 113 -3 -173 -310 -173 -310 35 -3 c20
-2 42 -1 48 1 7 3 91 145 186 316 l173 310 121 3 121 3 23 43 23 42 -279 0
-280 0 -25 -45z"/>
<path d="M15627 6447 c-108 -195 -197 -357 -197 -360 0 -4 19 -7 43 -7 l43 0
201 360 201 360 -47 0 -48 0 -196 -353z"/>
</g>
</svg>
